<svg width="184" height="56" viewBox="0 0 184 56" fill="none" xmlns="http://www.w3.org/2000/svg">
<path d="M72.9258 22H70.7695V6.78906H64.0898V22H61.9453V4.9375H72.9258V22ZM85.5258 14.1133H79.4906V20.1602H86.5219V22H77.3461V4.9375H86.4047V6.78906H79.4906V12.2734H85.5258V14.1133ZM92.0203 15.3203V22H89.8758V4.9375H95.3133C96.8992 4.9375 98.1453 5.41406 99.0516 6.36719C99.9578 7.3125 100.411 8.57422 100.411 10.1523C100.411 11.793 99.9773 13.0586 99.1102 13.9492C98.2508 14.832 97.0359 15.2891 95.4656 15.3203H92.0203ZM92.0203 13.4805H95.3133C96.2664 13.4805 96.9969 13.1953 97.5047 12.625C98.0125 12.0547 98.2664 11.2383 98.2664 10.1758C98.2664 9.15234 98.0047 8.33203 97.4813 7.71484C96.9578 7.09766 96.2391 6.78906 95.325 6.78906H92.0203V13.4805ZM111.968 14.1133H105.933V20.1602H112.964V22H103.788V4.9375H112.847V6.78906H105.933V12.2734H111.968V14.1133ZM127.287 4.9375V22H125.13V6.78906H120.361L120.103 13.9609C120.009 16.0547 119.81 17.6523 119.505 18.7539C119.201 19.8555 118.755 20.668 118.17 21.1914C117.584 21.7148 116.814 21.9844 115.861 22H115.205V20.1602L115.603 20.1367C116.173 20.0898 116.619 19.8711 116.939 19.4805C117.259 19.082 117.502 18.4531 117.666 17.5938C117.83 16.7344 117.947 15.4219 118.017 13.6562L118.298 4.9375H127.287ZM139.887 14.1133H133.852V20.1602H140.883V22H131.707V4.9375H140.766V6.78906H133.852V12.2734H139.887V14.1133ZM154.444 6.78906H149.955V22H147.811V6.78906H143.334V4.9375H154.444V6.78906ZM172.097 4.9375H174.241V22H172.097V8.85156L165.452 22H163.296V4.9375H165.452V18.0859L172.097 4.9375ZM72.5391 44.5859C72.4453 46.4141 71.9297 47.8125 70.9922 48.7812C70.0625 49.75 68.7461 50.2344 67.043 50.2344C65.332 50.2344 63.9727 49.5859 62.9648 48.2891C61.957 46.9844 61.4531 45.2188 61.4531 42.9922V39.8984C61.4531 37.6797 61.9688 35.9258 63 34.6367C64.0391 33.3477 65.4531 32.7031 67.2422 32.7031C68.8906 32.7031 70.1641 33.1992 71.0625 34.1914C71.9688 35.1758 72.4609 36.5859 72.5391 38.4219H70.3711C70.2773 37.0312 69.9844 36.0391 69.4922 35.4453C69 34.8516 68.25 34.5547 67.2422 34.5547C66.0781 34.5547 65.1836 35.0117 64.5586 35.9258C63.9336 36.832 63.6211 38.1641 63.6211 39.9219V43.0508C63.6211 44.7773 63.9102 46.1016 64.4883 47.0234C65.0742 47.9453 65.9258 48.4062 67.043 48.4062C68.1602 48.4062 68.9648 48.1289 69.457 47.5742C69.9492 47.0195 70.2539 46.0234 70.3711 44.5859H72.5391ZM85.6781 34.7891H81.1898V50H79.0453V34.7891H74.5688V32.9375H85.6781V34.7891ZM90.9422 43.3203V50H88.7977V32.9375H94.2352C95.8211 32.9375 97.0672 33.4141 97.9734 34.3672C98.8797 35.3125 99.3328 36.5742 99.3328 38.1523C99.3328 39.793 98.8992 41.0586 98.032 41.9492C97.1727 42.832 95.9578 43.2891 94.3875 43.3203H90.9422ZM90.9422 41.4805H94.2352C95.1883 41.4805 95.9188 41.1953 96.4266 40.625C96.9344 40.0547 97.1883 39.2383 97.1883 38.1758C97.1883 37.1523 96.9266 36.332 96.4031 35.7148C95.8797 35.0977 95.1609 34.7891 94.2469 34.7891H90.9422V41.4805ZM109.05 45.5469H103.284L101.96 50H99.757L105.253 32.9375H107.093L112.601 50H110.398L109.05 45.5469ZM103.847 43.6953H108.499L106.167 35.9375L103.847 43.6953ZM120.314 39.4766L123.525 32.9375H126.045L121.603 41.3984L126.138 50H123.595L120.314 43.3438L117.021 50H114.478L119.037 41.3984L114.572 32.9375H117.08L120.314 39.4766ZM140.133 42.9688C140.133 45.2969 139.637 47.0898 138.645 48.3477C137.652 49.6055 136.242 50.2344 134.414 50.2344C132.656 50.2344 131.266 49.625 130.242 48.4062C129.227 47.1797 128.699 45.4492 128.66 43.2148V40.0039C128.66 37.7227 129.164 35.9375 130.172 34.6484C131.18 33.3516 132.586 32.7031 134.391 32.7031C136.188 32.7031 137.586 33.3242 138.586 34.5664C139.594 35.8008 140.109 37.5664 140.133 39.8633V42.9688ZM137.988 39.9805C137.988 38.1758 137.691 36.8359 137.098 35.9609C136.512 35.0781 135.609 34.6367 134.391 34.6367C133.211 34.6367 132.316 35.082 131.707 35.9727C131.105 36.8633 130.801 38.1758 130.793 39.9102V42.9688C130.793 44.7109 131.094 46.0391 131.695 46.9531C132.305 47.8672 133.211 48.3242 134.414 48.3242C135.617 48.3242 136.508 47.9023 137.086 47.0586C137.664 46.2148 137.965 44.9219 137.988 43.1797V39.9805ZM144.049 50V32.9375H148.912C150.467 32.9375 151.635 33.3164 152.416 34.0742C153.205 34.832 153.6 35.9688 153.6 37.4844C153.6 38.2812 153.401 38.9844 153.002 39.5938C152.604 40.2031 152.065 40.6758 151.385 41.0117C152.166 41.2461 152.784 41.7266 153.237 42.4531C153.698 43.1797 153.928 44.0547 153.928 45.0781C153.928 46.6094 153.506 47.8125 152.662 48.6875C151.827 49.5625 150.631 50 149.077 50H144.049ZM146.194 42.0195V48.1602H149.123C149.936 48.1602 150.58 47.8945 151.057 47.3633C151.534 46.8242 151.772 46.0703 151.772 45.1016C151.772 43.0469 150.905 42.0195 149.17 42.0195H146.194ZM146.194 40.2148H148.948C149.69 40.2148 150.287 39.9648 150.741 39.4648C151.202 38.9648 151.432 38.3008 151.432 37.4727C151.432 36.5352 151.225 35.8555 150.811 35.4336C150.397 35.0039 149.764 34.7891 148.912 34.7891H146.194V40.2148ZM161.618 42.3359H160.001V50H157.856V32.9375H160.001V40.4609H161.313L166.118 32.9375H168.79L163.376 41.1875L169.188 50H166.563L161.618 42.3359ZM176.738 42.5L179.784 32.9375H182.269L177.359 47.1523C176.999 48.0664 176.675 48.7109 176.386 49.0859C176.105 49.4531 175.765 49.7383 175.366 49.9414C174.968 50.1445 174.468 50.2461 173.866 50.2461C173.327 50.2461 172.988 50.2109 172.847 50.1406L172.894 48.3594L173.82 48.4062C174.445 48.4062 174.894 48.0273 175.167 47.2695L175.73 45.5938L171.042 32.9375H173.433L176.738 42.5Z" fill="#242121"/>
<path d="M48.4374 33.4593C45.7268 34.1162 43.5047 35.3802 41.6311 37.1837C40.2576 34.844 38.3177 32.6006 36.5914 30.5809C35.4944 29.2971 34.1144 27.4034 32.2937 27.0383C32.5038 26.8843 32.6706 26.6554 32.7542 26.341C32.9956 25.4391 33.398 24.6092 34.0096 23.8783C34.3091 23.5205 34.6849 23.2144 35.049 22.9198C35.2158 22.7849 35.4216 22.7119 35.5775 22.5627C35.7809 22.3681 35.8816 22.0719 36.0179 21.8287C37.8753 19.8683 39.4758 17.1689 40.8906 15.189C42.8077 12.5062 45.464 8.37464 43.3043 5.17429C40.9598 1.69982 35.9137 3.02912 32.9723 4.7557C28.4803 7.39247 25.2937 11.7257 22.2679 15.7798C22.2231 15.6143 22.1432 15.4499 22.017 15.2937C18.7372 11.2336 6.83724 0.29283 1.48288 6.97778C-3.78052 13.5487 6.1361 22.8111 12.9775 25.1946C8.06055 27.9834 4.53479 33.7264 2.91257 38.7682C2.05122 41.4452 1.64417 47.9603 5.303 49.1737C8.60691 50.2696 11.9475 46.4912 13.8603 44.4899C16.9442 41.2631 19.5342 37.6449 22.2882 34.1642C22.3358 34.357 22.411 34.5675 22.5508 34.8234C23.4372 36.4463 24.8603 37.5976 26.3557 38.6973C28.3087 40.1336 30.5137 41.2688 32.6975 42.3448C33.9248 42.9494 35.3847 43.8253 36.8323 44.0932C34.7446 46.3283 33.5832 48.634 34.015 51.8177C34.1407 52.7451 34.9741 53.2756 35.8993 52.8524C39.4932 51.2084 42.4221 47.9389 44.7892 44.9678C47.156 41.9969 49.7902 38.4663 49.9985 34.5971C50.0406 33.8127 49.1814 33.2787 48.4374 33.4593ZM42.2453 44.1961C40.6095 46.17 38.6878 48.2687 36.4486 49.7523C36.5857 47.7758 37.3075 45.979 38.3141 44.0882C38.3234 44.0711 38.3234 44.0537 38.3304 44.0365C38.8675 43.7406 39.015 43.0354 38.5563 42.5202C37.7341 41.5954 36.4429 41.1997 35.3192 40.6954C33.5485 39.8998 31.8233 39.0176 30.1406 38.0638C28.4486 37.1045 26.8562 35.996 25.4621 34.666C25.0586 34.2812 23.3959 32.6871 23.3228 32.1368C23.2903 31.8917 22.9552 31.8005 22.8349 32.0159C22.2999 31.5054 21.2433 31.3606 20.6345 32.117C16.768 36.9205 13.0823 43.5049 7.4178 46.5624C4.10819 48.3487 5.45017 39.9416 5.87487 38.6973C7.51149 33.9002 11.0123 29.4971 14.5464 25.8403C14.6149 25.7693 14.6635 25.6942 14.6955 25.6178C15.5417 25.569 16.0867 24.3852 15.1683 23.989C10.5265 21.987 -0.0204079 14.4778 3.3704 8.78985C6.64797 3.29129 17.9449 14.6659 20.2362 16.9982C20.763 17.5342 21.3832 17.4646 21.8084 17.1208C22.0542 17.4352 22.5799 17.5864 22.9191 17.2455C25.7926 14.3586 28.6316 11.4791 31.7557 8.8335C33.4407 7.40676 35.3144 6.15931 37.512 5.61366C39.7004 5.07036 41.6922 6.47656 41.2919 8.58588C40.695 11.7317 37.9923 14.6901 36.0345 17.1629C35.1495 18.2807 33.2577 19.9457 32.9261 21.5637C32.7368 21.6848 32.5495 21.8136 32.361 21.9579C31.18 22.86 30.4748 24.2709 30.0681 25.6316C29.7243 26.7814 30.937 27.4759 31.8605 27.2384C31.8749 27.4016 32.1226 27.4642 32.2309 27.3151C31.4209 28.4261 34.1554 31.5366 34.841 32.5327C36.4407 34.8567 38.0806 37.2586 39.8348 39.4791C39.8125 40.3508 41.1703 41.1225 41.888 40.3155C43.4675 38.538 45.1023 37.1889 47.213 36.3359C46.3693 39.2276 44.0652 42.0005 42.2453 44.1961Z" fill="#00B2A0"/>
</svg>
