<svg width="206" height="54" viewBox="0 0 206 54" fill="none" xmlns="http://www.w3.org/2000/svg">
<path d="M72.9375 12.9688C72.9375 15.2969 72.4414 17.0898 71.4492 18.3477C70.457 19.6055 69.0469 20.2344 67.2188 20.2344C65.4609 20.2344 64.0703 19.625 63.0469 18.4062C62.0312 17.1797 61.5039 15.4492 61.4648 13.2148V10.0039C61.4648 7.72266 61.9688 5.9375 62.9766 4.64844C63.9844 3.35156 65.3906 2.70312 67.1953 2.70312C68.9922 2.70312 70.3906 3.32422 71.3906 4.56641C72.3984 5.80078 72.9141 7.56641 72.9375 9.86328V12.9688ZM70.793 9.98047C70.793 8.17578 70.4961 6.83594 69.9023 5.96094C69.3164 5.07813 68.4141 4.63672 67.1953 4.63672C66.0156 4.63672 65.1211 5.08203 64.5117 5.97266C63.9102 6.86328 63.6055 8.17578 63.5977 9.91016V12.9688C63.5977 14.7109 63.8984 16.0391 64.5 16.9531C65.1094 17.8672 66.0156 18.3242 67.2188 18.3242C68.4219 18.3242 69.3125 17.9023 69.8906 17.0586C70.4688 16.2148 70.7695 14.9219 70.793 13.1797V9.98047ZM85.6547 4.78906H78.9398V9.89844H82.3852C83.9164 9.90625 85.1156 10.3555 85.9828 11.2461C86.85 12.1289 87.2836 13.3477 87.2836 14.9023C87.2836 16.4648 86.8422 17.707 85.9594 18.6289C85.0844 19.543 83.8695 20 82.3148 20H76.7836V2.9375H85.6547V4.78906ZM78.9398 11.75V18.1602H82.3617C83.2367 18.1602 83.9164 17.8594 84.4008 17.2578C84.8852 16.6562 85.1273 15.8633 85.1273 14.8789C85.1273 13.9102 84.8852 13.1484 84.4008 12.5938C83.9242 12.0312 83.2484 11.75 82.3734 11.75H78.9398ZM95.3719 12.5L98.4188 2.9375H100.903L95.993 17.1523C95.6336 18.0664 95.3094 18.7109 95.0203 19.0859C94.7391 19.4531 94.3992 19.7383 94.0008 19.9414C93.6023 20.1445 93.1023 20.2461 92.5008 20.2461C91.9617 20.2461 91.6219 20.2109 91.4813 20.1406L91.5281 18.3594L92.4539 18.4062C93.0789 18.4062 93.5281 18.0273 93.8016 17.2695L94.3641 15.5938L89.6766 2.9375H92.0672L95.3719 12.5ZM114.804 2.9375V20H112.648V12.9453C111.46 13.3516 110.198 13.5547 108.862 13.5547C107.23 13.5547 106.015 13.1367 105.218 12.3008C104.421 11.4648 104.007 10.1914 103.976 8.48047V2.9375H106.132V8.36328C106.14 9.55859 106.351 10.4141 106.765 10.9297C107.179 11.4453 107.878 11.7031 108.862 11.7031C110.089 11.7031 111.351 11.4961 112.648 11.082V2.9375H114.804ZM127.38 12.1133H121.345V18.1602H128.377V20H119.201V2.9375H128.259V4.78906H121.345V10.2734H127.38V12.1133ZM142.898 20H140.742V12.1133H133.875V20H131.73V2.9375H133.875V10.2734H140.742V2.9375H142.898V20ZM156.108 2.9375H158.252V20H156.108V6.85156L149.463 20H147.307V2.9375H149.463V16.0859L156.108 2.9375ZM170.852 12.1133H164.817V18.1602H171.848V20H162.673V2.9375H171.731V4.78906H164.817V10.2734H170.852V12.1133ZM190.205 2.9375H192.349V20H190.205V6.85156L183.56 20H181.404V2.9375H183.56V16.0859L190.205 2.9375ZM63.8672 42.5859C64.0547 44.0547 64.4062 45.0586 64.9219 45.5977C65.4453 46.1289 66.2031 46.3945 67.1953 46.3945C68.2891 46.3945 69.1445 45.8828 69.7617 44.8594C70.3867 43.8281 70.707 42.3477 70.7227 40.418H65.2031V38.5664H70.7227C70.7227 36.6758 70.3945 35.2031 69.7383 34.1484C69.082 33.0859 68.168 32.5547 66.9961 32.5547C66.0742 32.5547 65.3633 32.8516 64.8633 33.4453C64.3633 34.0391 64.0312 35.0312 63.8672 36.4219H61.6992C61.8711 34.5781 62.4141 33.1641 63.3281 32.1797C64.25 31.1953 65.4727 30.7031 66.9961 30.7031C68.7852 30.7031 70.2109 31.4219 71.2734 32.8594C72.3438 34.2969 72.8789 36.2539 72.8789 38.7305V40.3359C72.8789 41.8984 72.6445 43.2773 72.1758 44.4727C71.7148 45.6602 71.0508 46.5859 70.1836 47.25C69.3164 47.9062 68.3203 48.2344 67.1953 48.2344C65.6016 48.2344 64.332 47.75 63.3867 46.7812C62.4414 45.8125 61.8789 44.4141 61.6992 42.5859H63.8672ZM80.4633 40.3359H78.8461V48H76.7016V30.9375H78.8461V38.4609H80.1586L84.9633 30.9375H87.6352L82.2211 39.1875L88.0336 48H85.4086L80.4633 40.3359ZM99.5438 30.9375H101.688V48H99.5438V34.8516L92.8992 48H90.743V30.9375H92.8992V44.0859L99.5438 30.9375ZM117.195 48H115.038V32.7891H108.359V48H106.214V30.9375H117.195V48ZM130.509 30.9375H132.654V48H130.509V34.8516L123.865 48H121.709V30.9375H123.865V44.0859L130.509 30.9375ZM139.219 41.3203V48H137.074V30.9375H142.512C144.098 30.9375 145.344 31.4141 146.25 32.3672C147.156 33.3125 147.609 34.5742 147.609 36.1523C147.609 37.793 147.176 39.0586 146.309 39.9492C145.449 40.832 144.234 41.2891 142.664 41.3203H139.219ZM139.219 39.4805H142.512C143.465 39.4805 144.195 39.1953 144.703 38.625C145.211 38.0547 145.465 37.2383 145.465 36.1758C145.465 35.1523 145.203 34.332 144.68 33.7148C144.156 33.0977 143.438 32.7891 142.523 32.7891H139.219V39.4805ZM162.084 40.9688C162.084 43.2969 161.588 45.0898 160.596 46.3477C159.604 47.6055 158.194 48.2344 156.366 48.2344C154.608 48.2344 153.217 47.625 152.194 46.4062C151.178 45.1797 150.651 43.4492 150.612 41.2148V38.0039C150.612 35.7227 151.116 33.9375 152.123 32.6484C153.131 31.3516 154.537 30.7031 156.342 30.7031C158.139 30.7031 159.537 31.3242 160.537 32.5664C161.545 33.8008 162.061 35.5664 162.084 37.8633V40.9688ZM159.94 37.9805C159.94 36.1758 159.643 34.8359 159.049 33.9609C158.463 33.0781 157.561 32.6367 156.342 32.6367C155.162 32.6367 154.268 33.082 153.659 33.9727C153.057 34.8633 152.752 36.1758 152.745 37.9102V40.9688C152.745 42.7109 153.045 44.0391 153.647 44.9531C154.256 45.8672 155.162 46.3242 156.366 46.3242C157.569 46.3242 158.459 45.9023 159.037 45.0586C159.616 44.2148 159.916 42.9219 159.94 41.1797V37.9805ZM166.001 48V30.9375H170.864C172.419 30.9375 173.587 31.3164 174.368 32.0742C175.157 32.832 175.552 33.9688 175.552 35.4844C175.552 36.2812 175.352 36.9844 174.954 37.5938C174.555 38.2031 174.016 38.6758 173.337 39.0117C174.118 39.2461 174.735 39.7266 175.188 40.4531C175.649 41.1797 175.88 42.0547 175.88 43.0781C175.88 44.6094 175.458 45.8125 174.614 46.6875C173.778 47.5625 172.583 48 171.028 48H166.001ZM168.145 40.0195V46.1602H171.075C171.887 46.1602 172.532 45.8945 173.009 45.3633C173.485 44.8242 173.723 44.0703 173.723 43.1016C173.723 41.0469 172.856 40.0195 171.122 40.0195H168.145ZM168.145 38.2148H170.899C171.641 38.2148 172.239 37.9648 172.692 37.4648C173.153 36.9648 173.384 36.3008 173.384 35.4727C173.384 34.5352 173.177 33.8555 172.762 33.4336C172.348 33.0039 171.716 32.7891 170.864 32.7891H168.145V38.2148ZM183.57 40.3359H181.952V48H179.808V30.9375H181.952V38.4609H183.265L188.07 30.9375H190.741L185.327 39.1875L191.14 48H188.515L183.57 40.3359ZM198.689 40.5L201.736 30.9375H204.22L199.31 45.1523C198.951 46.0664 198.627 46.7109 198.337 47.0859C198.056 47.4531 197.716 47.7383 197.318 47.9414C196.92 48.1445 196.42 48.2461 195.818 48.2461C195.279 48.2461 194.939 48.2109 194.798 48.1406L194.845 46.3594L195.771 46.4062C196.396 46.4062 196.845 46.0273 197.119 45.2695L197.681 43.5938L192.994 30.9375H195.384L198.689 40.5Z" fill="#242121"/>
<path d="M43.9961 49.7223C43.852 49.714 43.7037 49.7066 43.5583 49.6989C43.8236 49.1231 43.4787 48.3137 42.8527 48.1613C41.0157 47.7132 39.1233 47.9451 37.2284 47.3812C34.1877 46.4763 31.3566 44.8234 28.7435 43.0342C23.582 39.4995 18.0697 32.9615 25.2075 28.3245C26.052 27.7763 25.8067 26.137 24.6557 26.2514C22.8644 26.4299 21.0702 26.5269 19.2736 26.6291C20.2241 26.0899 20.9952 24.8291 21.592 24.083C22.797 22.5762 24.1816 21.9738 26.0881 21.8577C27.2837 21.7849 27.4607 20.1985 26.3635 19.7889C26.1565 19.7116 25.9557 19.3937 25.761 19.2569C25.301 18.9336 24.8298 18.6816 24.32 18.4486C23.8485 18.2332 23.3661 18.0449 22.8826 17.859C25.2775 17.0165 26.7825 14.1083 29.6697 13.9803C30.7194 13.9338 31.1835 12.7301 30.4985 11.9447C29.7644 11.1029 29.2165 10.2286 28.609 9.3956C30.1132 9.32176 31.6142 9.39188 33.1184 9.63438C33.6298 9.71699 34.0652 8.95336 33.5037 8.70448C31.2532 7.70712 28.8053 7.59504 26.4099 7.22849C25.0386 7.01866 24.3409 8.62852 25.478 9.47767C26.3906 10.1592 26.9965 11.0668 27.6116 11.9794C26.6488 12.2764 25.7529 12.7285 24.8658 13.3904C23.5663 14.3601 21.9572 15.3707 21.0104 16.6967C20.6989 17.1331 20.9579 17.7472 21.3926 17.9812C21.4111 18.0916 21.4667 18.1947 21.5779 18.2595C22.1663 18.6024 22.7657 18.9251 23.3551 19.2664C23.4778 19.3374 23.8984 19.5961 24.2947 19.8627C22.8907 20.0718 21.6231 20.604 20.4964 21.6745C19.898 22.2429 19.4034 22.9273 18.8635 23.551C18.1743 24.3473 17.3951 24.8033 17.2528 25.9067C17.1797 26.4737 17.7465 26.8273 18.2091 26.8796C18.2902 26.8889 18.3665 26.869 18.4456 26.8655C18.0749 27.2538 18.2315 28.0385 18.9254 28.0783C19.8265 28.1301 20.7269 28.1803 21.6267 28.2377C17.339 32.4749 19.7626 38.3584 24.3325 42.7136C26.0058 44.3081 29.7814 47.2524 33.6807 49.1852C21.1607 48.3206 7.5723 45.7341 3.55865 32.3442C1.23113 24.5789 5.08815 16.1447 10.3499 10.6477C13.1246 7.74882 16.6777 5.83006 20.5306 4.9416C25.1222 3.88261 28.7406 6.00643 32.7464 7.83568C33.7611 8.2989 34.7635 7.12969 33.9587 6.23751C28.3261 -0.00643682 18.6651 1.44884 12.2884 5.46963C4.80021 10.1911 0.196849 19.148 0.00419411 27.9837C-0.19577 37.1637 6.78341 45.2505 14.7684 48.625C24.0957 52.5669 34.1222 52.2299 43.9961 51.6503C45.2165 51.5783 45.2178 49.7916 43.9961 49.7223Z" fill="#00B2A0"/>
<path d="M49.8096 46.1407C48.8862 43.9994 47.3165 42.1715 45.4915 40.5858C45.5096 36.9076 45.5544 33.2282 45.5229 29.5503C45.5218 29.4198 45.5067 29.2987 45.4819 29.1853C45.6137 27.8023 45.5119 26.4548 45.2754 25.1053C45.2772 25.1042 45.2793 25.1026 45.2811 25.1016C46.1395 24.8657 46.8349 24.1592 47.5152 23.6065C48.0611 23.1629 48.6121 22.7129 49.1267 22.2282C49.2311 22.1424 49.3295 22.0489 49.4256 21.9552C50.9143 20.4956 48.6555 18.2064 47.163 19.6531C46.9401 19.8691 46.702 20.0677 46.464 20.2654C46.3063 20.396 46.146 20.5238 45.9865 20.6518C45.9016 20.7195 45.8165 20.787 45.7312 20.8542C45.962 20.6717 45.5372 21.0043 45.5404 21.0019C45.2033 21.2635 44.8329 21.5137 44.4868 21.7886C44.2445 20.9419 43.938 20.0499 43.4739 19.3477C43.8548 19.166 44.221 18.9655 44.5481 18.7317C45.9079 17.7609 47.0999 16.0807 46.4491 14.3104C46.0664 13.2695 45.3323 12.5297 44.4113 11.9539C44.2087 11.8272 43.9829 11.7109 43.7605 11.5937C43.6287 11.3587 43.4817 11.1308 43.2982 10.9217C43.2102 10.8213 43.1212 10.7446 43.0327 10.6622C43.0666 10.3865 42.9045 10.0875 42.5639 10.101C42.4211 10.1066 42.2811 10.1039 42.1404 10.1029C41.7778 9.98255 41.4184 9.98202 41.067 10.0699C39.9296 10.0213 38.8611 10.0354 37.8621 10.9443C37.1928 11.5531 36.8967 12.3369 36.8897 13.1765C35.9522 15.4358 35.6985 18.2215 38.0968 19.5201C38.487 19.7315 38.9105 19.8608 39.3443 19.9501C39.0945 20.8149 38.9063 21.6861 38.7564 22.5645C37.198 22.9137 35.5813 23.815 34.2656 24.3608C32.3346 24.9727 33.1379 28.0092 35.103 27.4514C36.2143 27.1359 37.282 26.6798 38.3536 26.2474C38.3051 27.095 38.2779 27.9521 38.2672 28.8214C38.2649 29.0108 38.3197 29.2217 38.4038 29.4212C38.126 30.2871 37.8389 31.2695 37.6517 32.2348C37.4026 33.1155 37.1494 33.9955 36.8764 34.8694C34.2358 33.4016 30.7477 31.8693 28.4812 33.3912C28.4747 33.3822 28.4671 33.3737 28.4604 33.3647C27.6354 32.2478 25.9089 33.1899 26.5821 34.4821C30.8103 42.5991 39.1974 47.1509 47.8277 48.7642C49.4271 49.0627 50.4424 47.608 49.8096 46.1407ZM30.9286 36.2768C31.2246 36.3432 31.5337 36.4441 31.8373 36.5294C31.7997 36.7669 31.8357 37.0149 31.9621 37.2309C31.9905 37.2792 32.0271 37.3228 32.0563 37.3703C31.6749 37.0147 31.2948 36.6572 30.9286 36.2768ZM39.5994 36.4638C39.6845 36.4088 39.7657 36.3406 39.838 36.2518C40.3807 35.5886 40.5091 34.8279 40.6169 34.0239C41.0994 32.9931 41.5197 31.941 41.8713 30.8682C42.0681 30.8956 42.2697 30.911 42.4694 30.9312C42.46 33.3862 42.4701 35.8412 42.4869 38.2965C41.522 37.6402 40.5446 37.0311 39.5994 36.4638Z" fill="#00B2A0"/>
</svg>
